<svg id="visual" viewBox="0 0 900 450" width="900" height="450" xmlns="http://www.w3.org/2000/svg" xmlns:xlink="http://www.w3.org/1999/xlink" version="1.1"><rect x="0" y="0" width="900" height="450" fill="#ffffff"></rect><g transform="translate(417.29727289381265 243.79796833781256)"><path d="M88 -141.2C125.3 -112.9 174.5 -107.6 208.2 -81.2C242 -54.8 260.2 -7.4 251.6 34.5C243 76.5 207.7 112.9 170.2 136.8C132.8 160.6 93.3 171.9 53.4 185.1C13.5 198.3 -26.8 213.3 -54.2 198.8C-81.7 184.3 -96.4 140.3 -120.5 107.3C-144.7 74.3 -178.2 52.4 -186.3 24.2C-194.3 -3.9 -176.7 -38.3 -164.3 -79C-151.9 -119.7 -144.6 -166.7 -118.1 -199.9C-91.5 -233.1 -45.8 -252.6 -10.2 -236.7C25.3 -220.8 50.7 -169.5 88 -141.2" fill="#BB004B"></path></g></svg>