<svg id="visual" viewBox="0 0 900 450" width="900" height="450" xmlns="http://www.w3.org/2000/svg" xmlns:xlink="http://www.w3.org/1999/xlink" version="1.1"><rect x="0" y="0" width="900" height="450" fill="#eefdfa"></rect><path d="M0 183L129 211L257 248L386 217L514 191L643 207L771 228L900 164L900 451L771 451L643 451L514 451L386 451L257 451L129 451L0 451Z" fill="#c2fcf2"></path><path d="M0 231L129 294L257 227L386 251L514 207L643 285L771 289L900 206L900 451L771 451L643 451L514 451L386 451L257 451L129 451L0 451Z" fill="#a5f9eb"></path><path d="M0 261L129 320L257 304L386 262L514 260L643 304L771 279L900 330L900 451L771 451L643 451L514 451L386 451L257 451L129 451L0 451Z" fill="#85f5e4"></path><path d="M0 343L129 311L257 316L386 327L514 371L643 367L771 308L900 320L900 451L771 451L643 451L514 451L386 451L257 451L129 451L0 451Z" fill="#5df1dd"></path><path d="M0 364L129 382L257 370L386 396L514 407L643 388L771 386L900 407L900 451L771 451L643 451L514 451L386 451L257 451L129 451L0 451Z" fill="#00edd6"></path></svg>