<?xml version="1.0" encoding="UTF-8" standalone="no"?>
<svg
   id="visual"
   viewBox="0 0 900 280"
   width="900"
   height="280"
   version="1.1"
   sodipodi:docname="peak-0.svg"
   inkscape:version="1.4 (86a8ad7, 2024-10-11)"
   xmlns:inkscape="http://www.inkscape.org/namespaces/inkscape"
   xmlns:sodipodi="http://sodipodi.sourceforge.net/DTD/sodipodi-0.dtd"
   xmlns="http://www.w3.org/2000/svg"
   xmlns:svg="http://www.w3.org/2000/svg">
  <defs
     id="defs6" />
  <sodipodi:namedview
     id="namedview6"
     pagecolor="#ffffff"
     bordercolor="#000000"
     borderopacity="0.25"
     inkscape:showpageshadow="2"
     inkscape:pageopacity="0.0"
     inkscape:pagecheckerboard="0"
     inkscape:deskcolor="#d1d1d1"
     inkscape:zoom="0.94111111"
     inkscape:cx="450"
     inkscape:cy="139.72845"
     inkscape:window-width="1366"
     inkscape:window-height="697"
     inkscape:window-x="-8"
     inkscape:window-y="-8"
     inkscape:window-maximized="1"
     inkscape:current-layer="visual" />
  <path
     d="M0 29L300 26L600 26L900 29L900 0L600 0L300 0L0 0Z"
     fill="#e9feff"
     id="path1"
     style="fill:#e9feff;fill-opacity:0" />
  <path
     d="M0 65L300 46L600 96L900 57L900 27L600 24L300 24L0 27Z"
     fill="#bffafd"
     id="path2" />
  <path
     d="M0 113L300 96L600 110L900 79L900 55L600 94L300 44L0 63Z"
     fill="#8ef5fc"
     id="path3" />
  <path
     d="M0 191L300 197L600 186L900 183L900 77L600 108L300 94L0 111Z"
     fill="#8ef5fc"
     id="path4" />
  <path
     d="M0 211L300 231L600 231L900 225L900 181L600 184L300 195L0 189Z"
     fill="#bffafd"
     id="path5" />
  <path
     d="M0 281L300 281L600 281L900 281L900 223L600 229L300 229L0 209Z"
     fill="#e9feff"
     id="path6"
     style="fill:#e9feff;fill-opacity:0" />
</svg>
