<?xml version="1.0" encoding="UTF-8" standalone="no"?>
<svg
   id="visual"
   viewBox="0 0 900 450"
   width="900"
   height="450"
   version="1.1"
   sodipodi:docname="wave-1.svg"
   inkscape:version="1.4 (86a8ad7, 2024-10-11)"
   xmlns:inkscape="http://www.inkscape.org/namespaces/inkscape"
   xmlns:sodipodi="http://sodipodi.sourceforge.net/DTD/sodipodi-0.dtd"
   xmlns="http://www.w3.org/2000/svg"
   xmlns:svg="http://www.w3.org/2000/svg">
  <defs
     id="defs3" />
  <sodipodi:namedview
     id="namedview3"
     pagecolor="#ffffff"
     bordercolor="#000000"
     borderopacity="0.25"
     inkscape:showpageshadow="2"
     inkscape:pageopacity="0.0"
     inkscape:pagecheckerboard="0"
     inkscape:deskcolor="#d1d1d1"
     inkscape:zoom="0.94111111"
     inkscape:cx="450"
     inkscape:cy="224.73436"
     inkscape:window-width="1366"
     inkscape:window-height="697"
     inkscape:window-x="-8"
     inkscape:window-y="-8"
     inkscape:window-maximized="1"
     inkscape:current-layer="visual" />
  <rect
     x="0"
     y="0"
     width="900"
     height="450"
     fill="#ffffff"
     id="rect1"
     style="fill:#ffffff;fill-opacity:0" />
  <path
     d="M0 339L30 337.2C60 335.3 120 331.7 180 327.8C240 324 300 320 360 310.5C420 301 480 286 540 289C600 292 660 313 720 311.2C780 309.3 840 284.7 870 272.3L900 260L900 0L870 0C840 0 780 0 720 0C660 0 600 0 540 0C480 0 420 0 360 0C300 0 240 0 180 0C120 0 60 0 30 0L0 0Z"
     fill="#ff5e7e"
     id="path1" />
  <path
     d="M0 185L30 185.3C60 185.7 120 186.3 180 188C240 189.7 300 192.3 360 192.7C420 193 480 191 540 195C600 199 660 209 720 217.3C780 225.7 840 232.3 870 235.7L900 239L900 0L870 0C840 0 780 0 720 0C660 0 600 0 540 0C480 0 420 0 360 0C300 0 240 0 180 0C120 0 60 0 30 0L0 0Z"
     fill="#ff406a"
     id="path2" />
  <path
     d="M0 129L30 125.8C60 122.7 120 116.3 180 108.3C240 100.3 300 90.7 360 95.5C420 100.3 480 119.7 540 129.3C600 139 660 139 720 137C780 135 840 131 870 129L900 127L900 0L870 0C840 0 780 0 720 0C660 0 600 0 540 0C480 0 420 0 360 0C300 0 240 0 180 0C120 0 60 0 30 0L0 0Z"
     fill="#ff0256"
     id="path3" />
</svg>
