<?xml version="1.0" encoding="UTF-8" standalone="no"?>
<svg
   id="visual"
   viewBox="0 0 900 450"
   width="900"
   height="450"
   version="1.1"
   sodipodi:docname="wave-2.svg"
   inkscape:version="1.4 (86a8ad7, 2024-10-11)"
   xmlns:inkscape="http://www.inkscape.org/namespaces/inkscape"
   xmlns:sodipodi="http://sodipodi.sourceforge.net/DTD/sodipodi-0.dtd"
   xmlns="http://www.w3.org/2000/svg"
   xmlns:svg="http://www.w3.org/2000/svg">
  <defs
     id="defs3" />
  <sodipodi:namedview
     id="namedview3"
     pagecolor="#ffffff"
     bordercolor="#000000"
     borderopacity="0.25"
     inkscape:showpageshadow="2"
     inkscape:pageopacity="0.0"
     inkscape:pagecheckerboard="0"
     inkscape:deskcolor="#d1d1d1"
     inkscape:zoom="0.94111111"
     inkscape:cx="450"
     inkscape:cy="224.73436"
     inkscape:window-width="1366"
     inkscape:window-height="697"
     inkscape:window-x="-8"
     inkscape:window-y="-8"
     inkscape:window-maximized="1"
     inkscape:current-layer="visual" />
  <rect
     x="0"
     y="0"
     width="900"
     height="450"
     fill="#ffffff"
     id="rect1"
     style="fill:#ffffff;fill-opacity:0" />
  <path
     d="M0 87L25 95.7C50 104.3 100 121.7 150 125.3C200 129 250 119 300 114.3C350 109.7 400 110.3 450 119.7C500 129 550 147 600 145.8C650 144.7 700 124.3 750 123C800 121.7 850 139.3 875 148.2L900 157L900 451L875 451C850 451 800 451 750 451C700 451 650 451 600 451C550 451 500 451 450 451C400 451 350 451 300 451C250 451 200 451 150 451C100 451 50 451 25 451L0 451Z"
     fill="#8ef5fc"
     id="path1" />
  <path
     d="M0 205L25 205.7C50 206.3 100 207.7 150 210.2C200 212.7 250 216.3 300 227.2C350 238 400 256 450 255.3C500 254.7 550 235.3 600 224.8C650 214.3 700 212.7 750 219C800 225.3 850 239.7 875 246.8L900 254L900 451L875 451C850 451 800 451 750 451C700 451 650 451 600 451C550 451 500 451 450 451C400 451 350 451 300 451C250 451 200 451 150 451C100 451 50 451 25 451L0 451Z"
     fill="#61e6f5"
     id="path2" />
  <path
     d="M0 367L25 355.7C50 344.3 100 321.7 150 321.3C200 321 250 343 300 352.7C350 362.3 400 359.7 450 351.3C500 343 550 329 600 333C650 337 700 359 750 362.5C800 366 850 351 875 343.5L900 336L900 451L875 451C850 451 800 451 750 451C700 451 650 451 600 451C550 451 500 451 450 451C400 451 350 451 300 451C250 451 200 451 150 451C100 451 50 451 25 451L0 451Z"
     fill="#00d6f0"
     id="path3" />
</svg>
